<!DOCTYPE svg PUBLIC "-//W3C//DTD SVG 1.1//EN" "http://www.w3.org/Graphics/SVG/1.1/DTD/svg11.dtd">
<!-- Uploaded to: SVG Repo, www.svgrepo.com, Transformed by: SVG Repo Mixer Tools -->
<svg width="247px" height="247px" viewBox="0 0 24 24" fill="none" xmlns="http://www.w3.org/2000/svg">
<g id="SVGRepo_bgCarrier" stroke-width="0"/>
<g id="SVGRepo_tracerCarrier" stroke-linecap="round" stroke-linejoin="round" stroke="#CCCCCC" stroke-width="0.384"> <path d="M20 10V7C20 5.89543 19.1046 5 18 5H6C4.89543 5 4 5.89543 4 7V10M20 10V19C20 20.1046 19.1046 21 18 21H6C4.89543 21 4 20.1046 4 19V10M20 10H4M8 3V7M16 3V7" stroke="#244dc6" stroke-width="0.9359999999999999" stroke-linecap="round"/> <rect x="6" y="12" width="3" height="3" rx="0.5" fill="#244dc6"/> <rect x="10.5" y="12" width="3" height="3" rx="0.5" fill="#244dc6"/> <rect x="15" y="12" width="3" height="3" rx="0.5" fill="#244dc6"/> </g>
<g id="SVGRepo_iconCarrier"> <path d="M20 10V7C20 5.89543 19.1046 5 18 5H6C4.89543 5 4 5.89543 4 7V10M20 10V19C20 20.1046 19.1046 21 18 21H6C4.89543 21 4 20.1046 4 19V10M20 10H4M8 3V7M16 3V7" stroke="#244dc6" stroke-width="0.9359999999999999" stroke-linecap="round"/> <rect x="6" y="12" width="3" height="3" rx="0.5" fill="#244dc6"/> <rect x="10.5" y="12" width="3" height="3" rx="0.5" fill="#244dc6"/> <rect x="15" y="12" width="3" height="3" rx="0.5" fill="#244dc6"/> </g>
</svg>